HIERARCHY
ROOT newVegas:Hips
{
	OFFSET 0.000000 96.479958 0.000000
	CHANNELS 6 Xposition Yposition Zposition Xrotation Yrotation Zrotation
	JOINT newVegas:Pelvis
	{
		OFFSET 0.000000 0.000000 0.000000
		CHANNELS 3 Xrotation Yrotation Zrotation
		JOINT newVegas:LeftUpLeg
		{
			OFFSET 18.735201 -5.666702 -4.541200
			CHANNELS 3 Xrotation Yrotation Zrotation
			JOINT newVegas:LeftLeg
			{
				OFFSET -0.021200 -31.938179 0.493100
				CHANNELS 3 Xrotation Yrotation Zrotation
				JOINT newVegas:LeftFoot
				{
					OFFSET 0.021200 -31.938179 -4.336299
					CHANNELS 3 Xrotation Yrotation Zrotation
					JOINT newVegas:LeftToeBase
					{
						OFFSET 0.943001 -26.722000 15.023500
						CHANNELS 3 Xrotation Yrotation Zrotation
						End Site
						{
							OFFSET 0.000000 30.670183 0.000000
						}
					}
				}
				JOINT newVegas:Left_PantLeg
				{
					OFFSET 0.663870 -9.044666 -1.108900
					CHANNELS 3 Xrotation Yrotation Zrotation
					End Site
					{
						OFFSET 1.415995 20.635357 0.000000
					}
				}
			}
		}
		JOINT newVegas:RightUpLeg
		{
			OFFSET -18.735201 -5.666702 -4.541200
			CHANNELS 3 Xrotation Yrotation Zrotation
			JOINT newVegas:RightLeg
			{
				OFFSET 0.018946 -31.938133 0.493100
				CHANNELS 3 Xrotation Yrotation Zrotation
				JOINT newVegas:RightFoot
				{
					OFFSET -0.018946 -31.938126 -4.336299
					CHANNELS 3 Xrotation Yrotation Zrotation
					JOINT newVegas:RightToeBase
					{
						OFFSET -0.943001 -26.722004 15.023500
						CHANNELS 3 Xrotation Yrotation Zrotation
						End Site
						{
							OFFSET 0.000000 30.670187 0.000000
						}
					}
				}
				JOINT newVegas:Right_PantLeg
				{
					OFFSET -0.661674 -9.044716 -1.108900
					CHANNELS 3 Xrotation Yrotation Zrotation
					End Site
					{
						OFFSET -1.415958 20.635269 0.000000
					}
				}
			}
		}
	}
	JOINT newVegas:Spine
	{
		OFFSET 0.000000 10.199997 -0.299500
		CHANNELS 3 Xrotation Yrotation Zrotation
		JOINT newVegas:Spine1
		{
			OFFSET 0.000000 11.900002 -1.516600
			CHANNELS 3 Xrotation Yrotation Zrotation
			JOINT newVegas:Spine2
			{
				OFFSET 0.000000 13.600006 -2.842500
				CHANNELS 3 Xrotation Yrotation Zrotation
				JOINT newVegas:Neck
				{
					OFFSET 0.000000 9.624100 -2.890100
					CHANNELS 3 Xrotation Yrotation Zrotation
					JOINT newVegas:Head
					{
						OFFSET 0.000000 14.068802 -1.351900
						CHANNELS 3 Xrotation Yrotation Zrotation
						JOINT newVegas:Hair_Back
						{
							OFFSET 0.000000 3.231903 -17.524799
							CHANNELS 3 Xrotation Yrotation Zrotation
							End Site
							{
								OFFSET 0.000000 19.849884 0.000000
							}
						}
						JOINT newVegas:Hair_Front
						{
							OFFSET 0.000000 31.260406 4.573800
							CHANNELS 3 Xrotation Yrotation Zrotation
							JOINT newVegas:Hair_Front1
							{
								OFFSET 0.000000 2.284103 11.993300
								CHANNELS 3 Xrotation Yrotation Zrotation
								JOINT newVegas:Hair_Front2
								{
									OFFSET 0.000000 2.284103 11.993300
									CHANNELS 3 Xrotation Yrotation Zrotation
									End Site
									{
										OFFSET 0.000000 12.208862 0.000000
									}
								}
							}
						}
						JOINT newVegas:Jowel
						{
							OFFSET 0.000000 -7.458206 6.864100
							CHANNELS 3 Xrotation Yrotation Zrotation
							End Site
							{
								OFFSET 0.000000 19.849884 0.000000
							}
						}
					}
				}
				JOINT newVegas:LeftShoulder
				{
					OFFSET 15.263000 10.923401 -0.547700
					CHANNELS 3 Xrotation Yrotation Zrotation
					JOINT newVegas:LeftArm
					{
						OFFSET 25.438599 -2.830597 -13.032500
						CHANNELS 3 Xrotation Yrotation Zrotation
						JOINT newVegas:LeftForeArm
						{
							OFFSET 29.960503 0.000000 0.000000
							CHANNELS 3 Xrotation Yrotation Zrotation
							JOINT newVegas:LeftHand
							{
								OFFSET 27.849251 0.000000 0.000000
								CHANNELS 3 Xrotation Yrotation Zrotation
								JOINT newVegas:LeftHandThumb1
								{
									OFFSET 4.487587 -3.305161 6.305391
									CHANNELS 3 Xrotation Yrotation Zrotation
									JOINT newVegas:LeftHandThumb2
									{
										OFFSET 5.480453 -3.164139 3.164143
										CHANNELS 3 Xrotation Yrotation Zrotation
										JOINT newVegas:LeftHandThumb3
										{
											OFFSET 5.159721 -2.978973 2.978967
											CHANNELS 3 Xrotation Yrotation Zrotation
											End Site
											{
												OFFSET 2.494507 5.926697 1.738678
											}
										}
									}
								}
								JOINT newVegas:LeftHandIndex1
								{
									OFFSET 18.578728 -0.527832 5.208049
									CHANNELS 3 Xrotation Yrotation Zrotation
									JOINT newVegas:LeftHandIndex2
									{
										OFFSET 3.192009 0.000000 0.000000
										CHANNELS 3 Xrotation Yrotation Zrotation
										JOINT newVegas:LeftHandIndex3
										{
											OFFSET 3.835129 0.000000 0.000000
											CHANNELS 3 Xrotation Yrotation Zrotation
											End Site
											{
												OFFSET -0.034599 3.816971 0.371180
											}
										}
									}
								}
								JOINT newVegas:LeftHandMiddle1
								{
									OFFSET 18.476105 0.000000 0.000000
									CHANNELS 3 Xrotation Yrotation Zrotation
									JOINT newVegas:LeftHandMiddle2
									{
										OFFSET 3.324875 0.000000 0.000000
										CHANNELS 3 Xrotation Yrotation Zrotation
										JOINT newVegas:LeftHandMiddle3
										{
											OFFSET 4.596550 0.000000 0.000000
											CHANNELS 3 Xrotation Yrotation Zrotation
											End Site
											{
												OFFSET 0.057701 4.578827 0.399218
											}
										}
									}
								}
								JOINT newVegas:LeftHandRing1
								{
									OFFSET 17.732719 0.121887 -4.201567
									CHANNELS 3 Xrotation Yrotation Zrotation
									JOINT newVegas:LeftHandRing2
									{
										OFFSET 2.733170 0.000000 0.000000
										CHANNELS 3 Xrotation Yrotation Zrotation
										JOINT newVegas:LeftHandRing3
										{
											OFFSET 3.178268 0.000000 0.000000
											CHANNELS 3 Xrotation Yrotation Zrotation
											End Site
											{
												OFFSET 0.119102 3.170624 0.185394
											}
										}
									}
								}
								JOINT newVegas:LeftHandPinky1
								{
									OFFSET 15.989624 -0.606689 -7.535461
									CHANNELS 3 Xrotation Yrotation Zrotation
									JOINT newVegas:LeftHandPinky2
									{
										OFFSET 2.538986 0.000000 0.000000
										CHANNELS 3 Xrotation Yrotation Zrotation
										JOINT newVegas:LeftHandPinky3
										{
											OFFSET 2.593102 0.000000 0.000000
											CHANNELS 3 Xrotation Yrotation Zrotation
											End Site
											{
												OFFSET -0.150902 2.584198 0.152708
											}
										}
									}
								}
							}
							JOINT newVegas:Left_Sleeve
							{
								OFFSET 0.267448 -0.649796 0.577675
								CHANNELS 3 Xrotation Yrotation Zrotation
								End Site
								{
									OFFSET 0.000000 15.991241 0.000000
								}
							}
							JOINT newVegas:Left_CapeC
							{
								OFFSET 15.715958 -8.608795 -6.935905
								CHANNELS 3 Xrotation Yrotation Zrotation
								JOINT newVegas:Left_CapeC1
								{
									OFFSET 0.000000 -8.688499 0.000000
									CHANNELS 3 Xrotation Yrotation Zrotation
									End Site
									{
										OFFSET 0.000000 8.688499 0.000000
									}
								}
							}
						}
						JOINT newVegas:Left_CapeB
						{
							OFFSET 26.118385 -8.608795 -7.079235
							CHANNELS 3 Xrotation Yrotation Zrotation
							JOINT newVegas:Left_CapeB1
							{
								OFFSET 0.000000 -8.688499 0.000000
								CHANNELS 3 Xrotation Yrotation Zrotation
								End Site
								{
									OFFSET 0.000000 8.688499 0.000000
								}
							}
						}
						JOINT newVegas:Left_CapeA
						{
							OFFSET 5.115639 -8.608795 -10.395809
							CHANNELS 3 Xrotation Yrotation Zrotation
							JOINT newVegas:Left_CapeA1
							{
								OFFSET 0.000000 -8.688499 0.000000
								CHANNELS 3 Xrotation Yrotation Zrotation
								End Site
								{
									OFFSET 0.000000 8.688499 0.000000
								}
							}
						}
					}
				}
				JOINT newVegas:RightShoulder
				{
					OFFSET -15.263000 10.923401 -0.547700
					CHANNELS 3 Xrotation Yrotation Zrotation
					JOINT newVegas:RightArm
					{
						OFFSET -25.438599 -2.830597 -13.032500
						CHANNELS 3 Xrotation Yrotation Zrotation
						JOINT newVegas:RightForeArm
						{
							OFFSET -29.960503 0.000000 0.000000
							CHANNELS 3 Xrotation Yrotation Zrotation
							JOINT newVegas:RightHand
							{
								OFFSET -27.849251 0.000000 0.000000
								CHANNELS 3 Xrotation Yrotation Zrotation
								JOINT newVegas:RightHandThumb1
								{
									OFFSET -4.487587 -3.305161 6.305391
									CHANNELS 3 Xrotation Yrotation Zrotation
									JOINT newVegas:RightHandThumb2
									{
										OFFSET -5.480453 -3.164139 3.164143
										CHANNELS 3 Xrotation Yrotation Zrotation
										JOINT newVegas:RightHandThumb3
										{
											OFFSET -5.159721 -2.978973 2.978967
											CHANNELS 3 Xrotation Yrotation Zrotation
											End Site
											{
												OFFSET -2.494507 5.926697 1.738678
											}
										}
									}
								}
								JOINT newVegas:RightHandIndex1
								{
									OFFSET -18.578728 -0.527832 5.208049
									CHANNELS 3 Xrotation Yrotation Zrotation
									JOINT newVegas:RightHandIndex2
									{
										OFFSET -3.192009 0.000000 0.000000
										CHANNELS 3 Xrotation Yrotation Zrotation
										JOINT newVegas:RightHandIndex3
										{
											OFFSET -3.835129 0.000000 0.000000
											CHANNELS 3 Xrotation Yrotation Zrotation
											End Site
											{
												OFFSET 0.034599 3.816971 0.371180
											}
										}
									}
								}
								JOINT newVegas:RightHandMiddle1
								{
									OFFSET -18.476105 0.000000 0.000000
									CHANNELS 3 Xrotation Yrotation Zrotation
									JOINT newVegas:RightHandMiddle2
									{
										OFFSET -3.324875 0.000000 0.000000
										CHANNELS 3 Xrotation Yrotation Zrotation
										JOINT newVegas:RightHandMiddle3
										{
											OFFSET -4.596550 0.000000 0.000000
											CHANNELS 3 Xrotation Yrotation Zrotation
											End Site
											{
												OFFSET -0.057701 4.578827 0.399218
											}
										}
									}
								}
								JOINT newVegas:RightHandRing1
								{
									OFFSET -17.732719 0.121887 -4.201567
									CHANNELS 3 Xrotation Yrotation Zrotation
									JOINT newVegas:RightHandRing2
									{
										OFFSET -2.733170 0.000000 0.000000
										CHANNELS 3 Xrotation Yrotation Zrotation
										JOINT newVegas:RightHandRing3
										{
											OFFSET -3.178268 0.000000 0.000000
											CHANNELS 3 Xrotation Yrotation Zrotation
											End Site
											{
												OFFSET -0.119102 3.170624 0.185394
											}
										}
									}
								}
								JOINT newVegas:RightHandPinky1
								{
									OFFSET -15.989624 -0.606689 -7.535461
									CHANNELS 3 Xrotation Yrotation Zrotation
									JOINT newVegas:RightHandPinky2
									{
										OFFSET -2.538986 0.000000 0.000000
										CHANNELS 3 Xrotation Yrotation Zrotation
										JOINT newVegas:RightHandPinky3
										{
											OFFSET -2.593102 0.000000 0.000000
											CHANNELS 3 Xrotation Yrotation Zrotation
											End Site
											{
												OFFSET 0.150902 2.584198 0.152708
											}
										}
									}
								}
							}
							JOINT newVegas:Right_CapeC
							{
								OFFSET -15.715958 -8.608795 -6.935905
								CHANNELS 3 Xrotation Yrotation Zrotation
								JOINT newVegas:Right_CapeC1
								{
									OFFSET 0.000000 -8.688499 0.000000
									CHANNELS 3 Xrotation Yrotation Zrotation
									End Site
									{
										OFFSET 0.000000 8.688499 0.000000
									}
								}
							}
							JOINT newVegas:Right_Sleeve
							{
								OFFSET -0.267448 -0.649994 0.577675
								CHANNELS 3 Xrotation Yrotation Zrotation
								End Site
								{
									OFFSET 0.000000 15.991302 0.000000
								}
							}
						}
						JOINT newVegas:Right_CapeA
						{
							OFFSET -5.115540 -8.608795 -10.395824
							CHANNELS 3 Xrotation Yrotation Zrotation
							JOINT newVegas:Right_CapeA1
							{
								OFFSET 0.000000 -8.688499 0.000000
								CHANNELS 3 Xrotation Yrotation Zrotation
								End Site
								{
									OFFSET 0.000000 8.688499 0.000000
								}
							}
						}
						JOINT newVegas:Right_CapeB
						{
							OFFSET -26.118187 -8.608795 -7.079266
							CHANNELS 3 Xrotation Yrotation Zrotation
							JOINT newVegas:Right_CapeB1
							{
								OFFSET 0.000000 -8.688499 0.000000
								CHANNELS 3 Xrotation Yrotation Zrotation
								End Site
								{
									OFFSET 0.000000 8.688499 0.000000
								}
							}
						}
					}
				}
				JOINT newVegas:Left_Collar
				{
					OFFSET 18.625099 8.655502 8.828100
					CHANNELS 3 Xrotation Yrotation Zrotation
					JOINT newVegas:Left_Collar1
					{
						OFFSET 14.783401 10.540405 -1.259500
						CHANNELS 3 Xrotation Yrotation Zrotation
						End Site
						{
							OFFSET 0.000000 18.199875 0.000000
						}
					}
				}
				JOINT newVegas:Collar_Back
				{
					OFFSET 0.000000 15.630707 -20.132601
					CHANNELS 3 Xrotation Yrotation Zrotation
					End Site
					{
						OFFSET 0.000000 22.523010 0.000000
					}
				}
				JOINT newVegas:Left_Peck
				{
					OFFSET 17.239599 -5.132599 25.482599
					CHANNELS 3 Xrotation Yrotation Zrotation
					End Site
					{
						OFFSET 0.000000 22.523010 0.000000
					}
				}
				JOINT newVegas:Right_Peck
				{
					OFFSET -17.239599 -5.132202 25.482599
					CHANNELS 3 Xrotation Yrotation Zrotation
					End Site
					{
						OFFSET 0.000000 22.523010 0.000000
					}
				}
				JOINT newVegas:Right_Collar
				{
					OFFSET -18.625099 8.655792 8.828100
					CHANNELS 3 Xrotation Yrotation Zrotation
					JOINT newVegas:Right_Collar1
					{
						OFFSET -14.783401 10.539993 -1.259500
						CHANNELS 3 Xrotation Yrotation Zrotation
						End Site
						{
							OFFSET 0.000000 18.199631 0.000000
						}
					}
				}
			}
		}
		JOINT newVegas:Belly
		{
			OFFSET 0.000000 -6.540398 9.014299
			CHANNELS 3 Xrotation Yrotation Zrotation
			End Site
			{
				OFFSET 0.000000 11.566666 0.000000
			}
		}
	}
	JOINT newVegas:ElvisFacialAnim_Joint
	{
		OFFSET 1.000000 -95.330101 -8.825800
		CHANNELS 3 Xrotation Yrotation Zrotation
		End Site
		{
			OFFSET 0.000000 35.315800 0.000000
		}
	}
}
MOTION
Frames: 4
Frame Time: 0.033333
0.124871 96.770691 1.988349 -5.515207 -8.280839 -1.873017 0.000000 -0.000001 -0.000000 -4.689134 13.670869 1.528728 10.094062 0.037974 -0.246956 -0.516198 0.655598 2.167910 -0.000000 -0.000000 -0.000000 -0.000000 -0.000001 0.000001 1.524788 -4.147456 -0.166000 10.500933 0.005414 0.425629 -6.349123 -15.940475 0.547472 0.000000 0.000002 -0.000000 0.000000 0.000000 -0.000000 2.344978 0.203636 0.509331 4.686811 0.416961 1.261552 4.686809 0.416961 1.261552 -3.884189 0.027111 -0.076956 -3.884189 0.027109 -0.076958 0.000000 0.000001 -0.000000 -3.884187 0.027106 -0.076956 -3.884053 0.027113 -0.076957 -0.000000 -0.000000 -0.000000 0.000000 0.000001 0.000000 12.673037 7.217839 -6.412513 0.810675 -36.515072 -69.772937 0.000004 -27.887799 0.000007 -19.641672 11.092939 16.563948 9.609219 12.467735 3.753387 -2.000607 5.419429 0.056559 0.000001 -0.000000 -0.000003 0.918522 4.161490 -38.479851 3.112407 -0.947357 -32.781773 -0.000001 -0.000001 0.000003 -1.739598 1.894137 -38.750870 -1.538280 -2.965137 -47.704281 0.000000 0.000000 0.000001 -6.604567 -1.899782 -38.941675 -5.674154 -4.277514 -66.812555 -0.000000 -0.000001 0.000001 -7.505349 -1.648731 -44.876658 -5.905531 -6.144019 -71.734431 -0.000000 -0.000002 -0.000000 0.000004 -0.000000 -0.000000 0.000004 -0.000000 -0.000000 0.000003 0.000000 -0.000000 0.000000 0.000001 0.000001 0.000000 0.000001 0.000001 0.000000 0.000001 0.000001 -0.000001 0.000001 0.000001 11.546277 8.398547 -1.489046 -5.154662 20.067687 72.643980 0.000012 31.316701 -0.000020 5.524572 -14.215637 -12.178623 4.312330 -1.679632 -0.685059 -1.883809 -6.256800 -0.767880 0.000002 -0.000002 -0.000001 -1.127537 -6.783484 26.665502 3.205496 0.430051 40.482142 -0.000002 0.000001 0.000000 -2.176618 -4.116140 39.703869 -13.869629 -15.589203 50.034592 0.000001 -0.000000 0.000003 -1.947187 0.926944 43.129076 -5.186531 5.343008 51.959868 0.000001 0.000001 0.000001 -5.194375 0.069815 48.565917 -8.841282 8.926193 65.312366 -0.000000 -0.000002 0.000001 0.000001 0.000000 -0.000000 0.000001 0.000000 0.000001 0.000001 -0.000000 -0.000000 0.000002 0.000000 -0.000002 0.000002 0.000000 -0.000002 0.000002 0.000000 -0.000002 0.000002 -0.000000 -0.000002 0.000001 0.000000 0.000000 0.000001 0.000000 0.000000 0.000001 0.000000 0.000000 0.000001 0.000000 0.000000 0.000001 0.000000 0.000000 0.000001 0.000000 0.000000 0.000001 0.000000 0.000000 -0.000000 0.000000 -0.000000 0.000000 -0.000001 -0.000000 
0.129546 96.778000 1.973043 -5.523553 -8.348109 -1.893759 0.000000 -0.000000 0.000000 -4.661884 13.710053 1.540840 10.058653 0.036705 -0.246056 -0.506685 0.683825 2.169537 0.000000 0.000000 -0.000000 -0.000000 -0.000000 0.000000 1.535560 -4.241187 -0.174177 10.418730 0.003171 0.423514 -6.264929 -15.767022 0.564821 0.000000 -0.000000 0.000000 -0.000001 0.000002 -0.000000 2.347959 0.206435 0.510506 4.692722 0.422673 1.264146 4.692721 0.422671 1.264146 -3.887313 0.027935 -0.071606 -3.887312 0.027939 -0.071607 -0.000000 -0.000001 0.000000 -3.887177 0.027927 -0.071606 -3.887422 0.027940 -0.071608 0.000000 -0.000000 -0.000000 -0.000000 -0.000001 0.000000 12.673395 7.221145 -6.409103 0.793791 -36.501958 -69.798953 -0.000070 -27.888745 0.000006 -19.617620 11.098993 16.563835 9.609872 12.475701 3.767973 -2.000608 5.419429 0.056565 -0.000000 -0.000000 -0.000005 0.860552 4.163705 -37.786632 3.119219 -0.933998 -32.537139 -0.000001 0.000001 0.000005 -1.716587 1.772502 -37.998316 -1.255296 -2.947375 -46.913953 -0.000001 -0.000001 -0.000000 -6.449848 -1.801441 -38.320425 -5.479276 -4.357107 -65.346025 -0.000000 -0.000002 0.000001 -7.399676 -1.611385 -44.182216 -5.814282 -6.122375 -70.153904 0.000001 -0.000003 0.000001 -0.000001 -0.000001 -0.000000 -0.000001 -0.000001 -0.000000 -0.000002 -0.000001 -0.000000 -0.000003 0.000000 -0.000000 -0.000003 0.000000 -0.000000 -0.000003 0.000000 -0.000000 -0.000005 0.000000 -0.000001 11.562962 8.353261 -1.565868 -5.188999 20.147183 72.648016 -0.004986 31.319071 -0.000009 5.486171 -14.153619 -12.178620 3.624802 -1.753974 -0.896598 -1.884536 -6.255311 -0.767737 0.000002 -0.000000 -0.000001 -1.223813 -6.449967 26.214900 3.209982 0.424429 40.171515 0.000000 0.000001 0.000001 -2.247757 -3.990479 39.182760 -13.835089 -14.936973 48.992909 0.000000 -0.000001 -0.000001 -1.824254 0.821904 42.617126 -5.090173 5.322681 50.820408 0.000001 0.000001 -0.000000 -4.974053 -0.208483 47.931669 -8.707462 8.901787 64.060187 -0.000000 -0.000000 0.000000 0.000000 0.000000 0.000000 0.000000 0.000000 0.000001 0.000000 0.000000 0.000001 0.000000 0.000000 0.000000 0.000000 0.000000 0.000000 0.000000 0.000000 0.000000 0.000000 -0.000000 0.000000 0.000001 -0.000001 0.000000 0.000001 -0.000001 0.000000 0.000001 -0.000001 0.000000 0.000001 -0.000001 0.000000 0.000001 -0.000001 0.000000 0.000001 -0.000001 0.000000 0.000001 -0.000001 0.000000 0.000000 0.000001 0.000000 0.000000 -0.000000 0.000000 
0.133849 96.788902 1.958164 -5.526113 -8.459865 -1.920115 -0.000000 -0.000001 -0.000000 -4.610440 13.768458 1.551625 9.983892 0.035364 -0.243829 -0.489986 0.733518 2.169147 0.000000 -0.000000 -0.000000 -0.000000 -0.000000 0.000001 1.545828 -4.362844 -0.188474 10.296296 0.000787 0.420112 -6.144431 -15.517544 0.590294 0.000000 0.000002 -0.000000 0.000000 -0.000001 -0.000000 2.349792 0.207680 0.510135 4.696371 0.425235 1.263516 4.696373 0.425231 1.263515 -3.889987 0.027607 -0.058134 -3.889986 0.027605 -0.058135 -0.000000 -0.000000 -0.000000 -3.889920 0.027599 -0.058134 -3.890001 0.027627 -0.058139 0.000000 -0.000001 -0.000000 -0.000000 -0.000000 -0.000000 12.671329 7.247930 -6.377596 0.773069 -36.463699 -69.849114 -0.000118 -27.895941 0.000009 -19.629357 11.102840 16.581117 9.627879 12.495239 3.737478 -2.000608 5.419428 0.056558 -0.000003 0.000000 -0.000006 0.807105 4.169986 -37.061993 3.128192 -0.912289 -32.281786 0.000001 0.000001 0.000001 -1.688608 1.646117 -37.211741 -0.958686 -2.913879 -46.088750 -0.000001 0.000001 -0.000001 -6.296672 -1.694414 -37.670966 -5.275957 -4.440110 -63.812852 0.000001 -0.000001 0.000000 -7.290103 -1.571752 -43.456406 -5.719588 -6.097096 -68.502139 0.000000 -0.000002 -0.000000 0.000003 -0.000001 0.000001 0.000003 -0.000001 0.000001 0.000002 -0.000001 0.000001 0.000003 -0.000001 -0.000000 0.000003 -0.000001 -0.000000 0.000003 -0.000001 -0.000000 0.000002 -0.000001 -0.000001 11.596697 8.251574 -1.712392 -5.288498 20.239801 72.749158 -0.010402 31.340624 0.000007 5.395732 -14.038445 -12.201413 2.903187 -1.824840 -1.116133 -1.886654 -6.250975 -0.767224 -0.000000 -0.000003 0.000001 -1.317337 -6.100172 25.744853 3.214636 0.418536 39.846863 0.000003 0.000001 0.000004 -2.312485 -3.855620 38.638664 -13.776006 -14.262292 47.902961 0.000000 -0.000002 -0.000001 -1.697437 0.710664 42.082220 -4.989909 5.299398 49.629620 -0.000001 0.000001 -0.000001 -4.750243 -0.502612 47.268696 -8.566798 8.869346 62.751680 -0.000001 0.000002 -0.000001 0.000000 0.000001 0.000000 0.000000 -0.000001 0.000002 0.000000 0.000000 0.000000 0.000002 0.000000 -0.000000 0.000002 0.000000 0.000000 0.000002 0.000000 -0.000000 0.000002 -0.000000 0.000000 0.000000 0.000000 -0.000000 0.000000 0.000000 -0.000000 0.000000 0.000000 -0.000000 0.000000 0.000000 -0.000000 0.000000 0.000000 -0.000000 0.000000 0.000000 -0.000000 0.000000 0.000000 -0.000000 0.000000 0.000000 0.000000 -0.000000 -0.000001 -0.000000 
0.137657 96.798355 1.942135 -5.522355 -8.636910 -1.958279 -0.000000 -0.000000 -0.000000 -4.574689 13.855386 1.577524 9.952033 0.032827 -0.242586 -0.512767 0.822635 2.167761 -0.000000 0.000000 -0.000000 0.000000 0.000000 0.000000 1.523611 -4.457573 -0.200259 10.179819 -0.001981 0.417139 -6.004197 -15.229710 0.619227 -0.000000 -0.000000 0.000000 -0.000000 -0.000001 0.000000 2.348435 0.203794 0.506955 4.693731 0.417426 1.257152 4.693736 0.417426 1.257153 -3.890129 0.026281 -0.034763 -3.890128 0.026280 -0.034761 0.000000 0.000000 -0.000000 -3.890067 0.026281 -0.034762 -3.890235 0.026272 -0.034761 0.000000 -0.000001 -0.000000 0.000000 0.000000 -0.000000 12.665259 7.303308 -6.315776 0.770699 -36.365549 -69.920831 -0.000035 -27.905585 -0.000010 -19.677821 11.095211 16.640014 9.628049 12.491472 3.728681 -2.000606 5.419427 0.056558 0.000000 -0.000001 -0.000001 0.757830 4.180278 -36.308466 3.139153 -0.882629 -32.016590 -0.000000 -0.000001 0.000000 -1.655266 1.515604 -36.393731 -0.650000 -2.864111 -45.231801 -0.000001 -0.000000 0.000001 -6.145665 -1.579157 -36.995552 -5.063906 -4.525002 -62.218338 0.000000 -0.000001 0.000001 -7.177153 -1.530052 -42.701769 -5.621956 -6.067939 -66.784900 -0.000001 -0.000003 -0.000000 -0.000004 -0.000001 -0.000000 -0.000004 -0.000001 -0.000000 -0.000004 -0.000001 0.000000 -0.000004 -0.000002 -0.000001 -0.000004 -0.000002 -0.000001 -0.000004 -0.000002 -0.000001 -0.000005 -0.000002 -0.000002 11.644083 8.092885 -1.897242 -5.443895 20.362312 72.916272 -0.016190 31.402519 0.000013 5.200213 -13.859069 -12.262211 2.149736 -1.891122 -1.342550 -1.890056 -6.243940 -0.766440 -0.000001 -0.000004 -0.000001 -1.407141 -5.735257 25.257036 3.219441 0.412377 39.509376 0.000001 -0.000002 0.000003 -2.370459 -3.712236 38.073424 -13.690050 -13.569150 46.767883 0.000001 0.000001 -0.000002 -1.567387 0.593468 41.526307 -4.886227 5.273016 48.391641 -0.000002 0.000001 -0.000002 -4.524557 -0.811797 46.579339 -8.420225 8.828621 61.391468 -0.000001 0.000002 0.000000 -0.000001 0.000000 -0.000000 0.000001 -0.000001 -0.000000 -0.000001 0.000000 -0.000000 -0.000002 0.000001 -0.000000 -0.000002 0.000000 -0.000000 -0.000002 0.000001 -0.000000 -0.000002 -0.000000 0.000001 -0.000000 0.000000 0.000000 -0.000000 0.000000 0.000000 -0.000000 0.000000 0.000000 -0.000000 0.000000 0.000000 -0.000000 0.000000 0.000000 -0.000000 0.000000 0.000000 -0.000000 0.000000 0.000000 0.000000 0.000001 -0.000000 -0.000000 -0.000000 -0.000000 
